<?xml version="1.0" standalone="no"?>
<!DOCTYPE svg PUBLIC "-//W3C//DTD SVG 20010904//EN"
 "http://www.w3.org/TR/2001/REC-SVG-20010904/DTD/svg10.dtd">
<svg version="1.0" xmlns="http://www.w3.org/2000/svg"
 width="150.000000pt" height="143.000000pt" viewBox="0 0 150.000000 143.000000"
 preserveAspectRatio="xMidYMid meet">
<metadata>
Created by potrace 1.16, written by Peter Selinger 2001-2019
</metadata>
<g transform="translate(0.000000,143.000000) scale(0.100000,-0.100000)"
fill="#000000" stroke="none">
<path d="M678 1300 c-24 -18 -110 -141 -437 -626 l-143 -211 45 -89 c25 -49
51 -97 59 -107 12 -16 39 18 272 352 141 204 261 373 265 375 10 7 194 -285
199 -316 3 -19 -2 -30 -21 -42 -13 -9 -31 -14 -39 -11 -9 4 -45 43 -81 88
-109 138 -88 141 -205 -35 l-102 -153 281 -3 c253 -2 285 0 317 15 74 37 97
115 57 193 -35 69 -328 536 -353 563 -31 33 -78 36 -114 7z"/>
<path d="M430 375 l0 -115 30 0 c29 0 30 2 30 45 0 41 2 45 25 45 20 0 25 5
25 25 0 20 -5 25 -25 25 -31 0 -34 27 -3 32 14 2 24 13 29 31 l7 27 -59 0 -59
0 0 -115z"/>
<path d="M580 415 c-43 -46 -22 -146 33 -157 30 -6 68 8 85 29 11 15 12 15 12
-5 0 -18 6 -22 30 -22 28 0 29 1 32 57 4 66 28 89 28 26 1 -65 39 -93 118 -85
l42 4 0 89 0 89 -57 0 c-38 0 -62 -5 -75 -17 -17 -15 -18 -15 -18 2 0 14 -6
16 -32 11 -17 -3 -40 -14 -50 -23 -17 -15 -20 -15 -41 5 -32 30 -77 28 -107
-3z"/>
<path d="M991 414 c-43 -54 -12 -144 50 -144 29 0 38 -13 18 -26 -6 -3 -16 -1
-22 5 -16 16 -57 14 -57 -4 0 -26 38 -55 73 -55 57 0 67 21 67 143 l0 107 -54
0 c-47 0 -57 -4 -75 -26z"/>
<path d="M1180 433 c-41 -15 -50 -35 -50 -110 l0 -73 30 0 c29 0 30 1 30 49 0
27 3 56 6 65 11 29 24 16 24 -24 0 -60 32 -87 95 -80 29 3 43 18 54 55 11 41
4 78 -20 104 -24 25 -75 28 -101 4 -17 -15 -18 -15 -18 0 0 17 -21 21 -50 10z"/>
<path d="M150 145 l0 -25 605 0 605 0 0 25 0 25 -605 0 -605 0 0 -25z"/>
</g>
</svg>
