<?xml version="1.0" encoding="UTF-8" standalone="no"?>
<!-- Created with Inkscape (http://www.inkscape.org/) -->

<svg
   version="1.1"
   id="svg2"
   xml:space="preserve"
   width="1293.5"
   height="1237.6307"
   viewBox="0 0 1293.5 1237.6307"
   sodipodi:docname="LOGO FORAGRO.ai"
   xmlns:inkscape="http://www.inkscape.org/namespaces/inkscape"
   xmlns:sodipodi="http://sodipodi.sourceforge.net/DTD/sodipodi-0.dtd"
   xmlns="http://www.w3.org/2000/svg"
   xmlns:svg="http://www.w3.org/2000/svg"
>
  <path
       d="M 833.48,125.062 H 142.45 V 145.9 h 691.03 z"
       style="fill:#117d3f;fill-opacity:1;fill-rule:evenodd;stroke:none"
       id="path10" /><g
       id="g12"
       transform="translate(307.0956,331.8112)"><path
         d="m 0,0 v -125.062 h 25.572 v 50.866 h 31.47 v 20.688 l -32.258,0.15 v 24.585 l 27.408,0.15 L 59.533,0 Z"
         style="fill:#000000;fill-opacity:1;fill-rule:nonzero;stroke:none"
         id="path14" /></g><g
       id="g16"><g
         id="g18"
         clip-path="url(#clipPath22)"><g
           id="g24"
           transform="translate(420.7747,227.4375)"><path
             d="m 0,0 c -11.604,0 -21.01,11.122 -21.01,24.838 0,13.718 9.406,24.835 21.01,24.835 11.601,0 21.005,-11.117 21.005,-24.835 C 21.005,11.122 11.601,0 0,0 m 0,75.843 c -23.833,0 -43.144,-22.839 -43.144,-51.005 0,-28.171 19.311,-51.01 43.144,-51.01 23.829,0 43.142,22.839 43.142,51.01 0,28.166 -19.313,51.005 -43.142,51.005"
             style="fill:#000000;fill-opacity:1;fill-rule:nonzero;stroke:none"
             id="path26" /></g><g
           id="g28"
           transform="translate(468.8796,279.1262)"><path
             d="M 0,0 20.457,18.45 V 9.222 c 0,0 4.987,13.454 27.807,14.932 V -1.851 c 0,0 -18.101,-2.519 -19.414,-16.277 -1.311,-13.761 -0.525,-54.249 -0.525,-54.249 l -28.325,0 z"
             style="fill:#000000;fill-opacity:1;fill-rule:nonzero;stroke:none"
             id="path30" /></g><g
           id="g32"
           transform="translate(710.5148,277.7553)"><path
             d="M 0,0 20.455,19.497 V 9.744 c 0,0 4.987,14.22 27.807,15.781 V -1.956 c 0,0 -18.099,-2.664 -19.41,-17.203 C 27.541,-33.702 28.327,-76.49 28.327,-76.49 H 0 Z"
             style="fill:#000000;fill-opacity:1;fill-rule:nonzero;stroke:none"
             id="path34" /></g><g
           id="g36"
           transform="translate(560.2896,227.4375)"><path
             d="m 0,0 c -11.61,0 -21.014,11.12 -21.014,24.838 0,13.718 9.404,24.837 21.014,24.837 11.597,0 21.003,-11.119 21.003,-24.837 C 21.003,11.12 11.597,0 0,0 M 18.52,75.843 V 70.856 C 12.902,74.018 6.636,75.843 0,75.843 c -23.831,0 -43.148,-22.839 -43.148,-51.005 0,-28.171 19.317,-51.01 43.148,-51.01 6.636,0 12.902,1.825 18.52,4.993 v -2.95 h 26.357 v 99.972 z"
             style="fill:#000000;fill-opacity:1;fill-rule:nonzero;stroke:none"
             id="path38" /></g><g
           id="g40"
           transform="translate(801.9225,227.4309)"><path
             d="m 0,0 c -11.602,0 -21.01,11.124 -21.01,24.842 0,13.716 9.408,24.84 21.01,24.84 11.601,0 21.001,-11.124 21.001,-24.84 C 21.001,11.124 11.601,0 0,0 m 0,75.85 c -23.829,0 -43.146,-22.839 -43.146,-51.008 0,-28.175 19.317,-51.008 43.146,-51.008 23.827,0 43.14,22.833 43.14,51.008 C 43.14,53.011 23.827,75.85 0,75.85"
             style="fill:#000000;fill-opacity:1;fill-rule:nonzero;stroke:none"
             id="path42" /></g><g
           id="g44"
           transform="translate(658.4105,230.4364)"><path
             d="m 0,0 c -11.203,0 -20.271,10.85 -20.271,24.24 0,13.382 9.068,24.233 20.271,24.233 11.19,0 20.264,-10.851 20.264,-24.233 C 20.264,10.85 11.19,0 0,0 m 42.157,-19.682 0.036,92.526 H 18.398 v -6.028 c -5.723,3.83 -12.31,6.028 -19.332,6.028 -21.935,0 -39.714,-21.262 -39.714,-47.497 0,-26.227 17.779,-47.494 39.714,-47.494 7.022,0 13.609,2.202 19.332,6.023 0,0 2.969,-27.583 -13.291,-27.744 -16.252,-0.161 -16.252,14.566 -16.252,14.566 h -24.986 c 0,0 0.889,-36.996 40.914,-37.159 40.458,-0.158 37.374,46.779 37.374,46.779"
             style="fill:#000000;fill-opacity:1;fill-rule:nonzero;stroke:none"
             id="path46" /></g><g
           id="g48"
           transform="translate(125.0623,316.4225)"><path
             d="m 0,0 c 18.814,-34.119 34.695,-71.165 54.174,-104.616 l 303.13,435.697 c 33.543,-52.272 75.19,-115.008 109.498,-167.834 10.693,-16.473 19.028,-27.534 14.367,-47.944 -3.395,-14.845 -14.442,-29.195 -30.508,-31.391 -21.601,-2.936 -34.963,10.897 -45.2,23.002 -26.736,31.555 -47.161,61.836 -73.509,89.664 L 228.217,42.533 h 222.444 c 42.915,0 82.7,-3.399 107.195,11.497 17.696,10.755 32.389,28.124 35.267,48.988 3.175,23.008 -7.499,42.48 -19.124,61.375 -58.552,95.131 -117.987,189.869 -178.658,286.251 -9.496,15.076 -24.426,33.352 -36.884,35.636 -6.493,1.191 -13.067,-0.21 -14.98,-1.148 -29.276,-14.273 -44.905,-44.637 -63.396,-71.277 z"
             style="fill:#117d3f;fill-opacity:1;fill-rule:evenodd;stroke:none"
             id="path50" /></g></g></g></g></svg>
